<svg width="30" height="19" viewBox="0 0 30 19" fill="none" xmlns="http://www.w3.org/2000/svg">
<path d="M30 9.23913L17.25 17.2405V1.23781L30 9.23913Z" fill="#B16C04"/>
<path d="M22.5 9.37311C23.1667 9.75801 23.1667 10.7203 22.5 11.1052L17.25 14.1362C16.5833 14.5211 15.75 14.04 15.75 13.2702V7.20805C15.75 6.43825 16.5833 5.95712 17.25 6.34202L22.5 9.37311Z" fill="white"/>
<path d="M17 9.49999L4.25 17.5013L4.25 1.49867L17 9.49999Z" fill="#B16C04"/>
<path d="M9.5 9.63397C10.1667 10.0189 10.1667 10.9811 9.5 11.366L4.25 14.3971C3.58333 14.782 2.75 14.3009 2.75 13.5311V7.46891C2.75 6.69911 3.58333 6.21799 4.25 6.60289L9.5 9.63397Z" fill="white"/>
<path d="M17 9.49999L4.25 17.5013L4.25 1.49867L17 9.49999Z" fill="#B16C04"/>
<path d="M9.49941 9.63359C10.1661 10.0185 10.1667 10.9811 9.5 11.366L4.25 14.3971C3.58333 14.782 2.75 14.3008 2.75 13.531V7.46887C2.75 6.69907 3.58392 6.21828 4.25059 6.60318C6.14081 7.6945 7.60919 8.54227 9.49941 9.63359Z" fill="white"/>
</svg>
